<?xml version="1.0" encoding="UTF-8"?>
<svg id="Calque_1" data-name="Calque 1" xmlns="http://www.w3.org/2000/svg" viewBox="0 0 500 500">
  <defs>
    <style>
      .cls-1 {
        fill: #fff;
      }

      .cls-1, .cls-2 {
        stroke-width: 0px;
      }

      .cls-2 {
        fill: #231f20;
      }
    </style>
  </defs>
  <rect class="cls-2" x="85.18" y="118.43" width="270.79" height="270.79" rx="47.75" ry="47.75"/>
  <g>
    <path class="cls-1" d="m206.83,361.02c7.27-7.57,12.89-15.57,15.96-25.11,6.48-20.14,6.3-39.87-4.69-58.54-7.21-12.26-17.01-21.96-31.05-25.93-6.34-1.79-13.11-2.04-19.7-2.9-20.54-2.7-37.94-10.78-48.78-29.37-19.03-32.68,1.42-74.93,38.82-80.06,6.79-.93,13.78-.37,20.68-.4,21.58-.1,43.16-.16,64.74-.23.57,0,1.13,0,2.36,0-1.74,1.24-3.01,2.09-4.22,3.01-13.35,10.14-20.47,23.72-21.33,40.33-1.14,21.85,8.47,39.12,24.2,53.34,5.03,4.55,10.45,8.84,16.25,12.31,7.91,4.73,17.09,6.46,26.09,6.94,24.72,1.3,43.67,22.23,47.77,43.12,5.78,29.5-15.16,59.51-45,63.5-3.94.53-7.97.58-11.95.56-22.41-.09-44.82-.27-67.23-.43-.8,0-1.6-.07-2.91-.13Z"/>
    <path class="cls-1" d="m111.45,312.11c.03-27.15,21.97-49.03,49.11-48.99,26.78.05,48.77,22,48.89,48.8.12,27.19-21.91,49.19-49.22,49.15-27.07-.04-48.81-21.86-48.78-48.96Z"/>
    <path class="cls-1" d="m285.84,236.31c-26.98.07-49.18-22.03-49.1-48.85.09-27.3,21.82-49.01,49.1-49.04,27.09-.03,48.93,21.82,48.9,48.91-.04,27.13-21.78,48.92-48.9,48.98Z"/>
  </g>
</svg>